<?xml version="1.0" encoding="UTF-8" standalone="no"?>
<svg
   xmlns:dc="http://purl.org/dc/elements/1.1/"
   xmlns:cc="http://creativecommons.org/ns#"
   xmlns:rdf="http://www.w3.org/1999/02/22-rdf-syntax-ns#"
   xmlns:svg="http://www.w3.org/2000/svg"
   xmlns="http://www.w3.org/2000/svg"
   id="svg34"
   xml:space="preserve"
   enable-background="new 0 0 24 24"
   viewBox="0 0 75 75"
   height="75"
   width="75"
   y="0px"
   x="0px"
   version="1.1"><metadata
     id="metadata40"><rdf:RDF><cc:Work
         rdf:about=""><dc:format>image/svg+xml</dc:format><dc:type
           rdf:resource="http://purl.org/dc/dcmitype/StillImage" /><dc:title></dc:title></cc:Work></rdf:RDF></metadata><defs
     id="defs38" /><g
     style="opacity:1;stroke:none;stroke-opacity:1"
     transform="translate(62.43416,61.441159)"
     id="g7983"><g
       transform="translate(2.000145e-6,-6.1594508)"
       id="g8011"><path
         style="opacity:1;fill:#338000;fill-opacity:1;stroke:none;stroke-width:1.40568936;stroke-miterlimit:4;stroke-dasharray:none;stroke-opacity:1"
         d="m 4.2325029,-26.115042 v 37.5 H -54.184161 v -58.333333 h 37.5 v -8.333333 h -37.416668 c -4.583332,0 -8.333333,3.75 -8.333333,8.333333 v 58.333333 c 0,4.583333 3.750001,8.333334 8.333333,8.333334 H 4.2325029 c 4.583334,0 8.3333351,-3.750001 8.3333351,-8.333334 v -37.5 z"
         id="path7520" /><g
         transform="matrix(-0.971023,0.971023,0.971023,0.971023,3.1670123,-81.831292)"
         id="g7790"
         style="fill:#338000;stroke:none;stroke-opacity:1"><g
           id="Outline_1_"
           style="fill:#338000;stroke:none;stroke-opacity:1"><path
             style="opacity:1;fill:#338000;fill-opacity:1;stroke:none;stroke-width:1.84852803;stroke-opacity:1"
             d="m 55.774372,5.5020149 c 4.713747,2.4585416 7.948672,7.4125981 7.948672,13.1060631 0,5.693466 -3.234925,10.647523 -7.948672,13.106065 2.698852,-3.697059 4.251616,-8.244437 4.251616,-13.106065 0,-4.861628 -1.552764,-9.4090058 -4.251616,-13.1060631 M 48.934818,0.12279776 c -1.940954,0 -3.789482,0.29576615 -5.545584,0.85032325 C 50.894258,3.3207528 56.32893,10.326672 56.32893,18.608078 c 0,8.281406 -5.434672,15.28733 -12.939696,17.634959 1.756102,0.554558 3.60463,0.850322 5.545584,0.850322 10.203876,0 18.485282,-8.281405 18.485282,-18.485281 0,-10.2038744 -8.281406,-18.48528024 -18.485282,-18.48528024 z"
             id="path7773" /></g></g><g
         transform="matrix(1.8499999,0,0,1.8499999,59.170613,-53.911817)"
         id="g7868"
         style="fill:#55d400;stroke:none;stroke-opacity:1"><g
           id="Outline-9"
           style="fill:#55d400;stroke:none;stroke-opacity:1"><path
             d="m -48.968994,8.9969479 c -3.903229,3.9032291 -3.903229,10.2389061 0,14.1421361 3.90323,3.903229 10.238906,3.903229 14.142136,0 3.903229,-3.90323 3.903229,-10.238907 0,-14.1421361 -3.90323,-3.9032292 -10.238906,-3.9032292 -14.142136,0 z m 11.971318,13.3855311 c -3.132483,2.439519 -7.672109,2.227387 -10.557104,-0.657609 -2.884996,-2.884996 -3.104199,-7.41755 -0.65761,-10.557104 z m -9.8005,-12.6289269 c 0.820244,-0.6363961 1.732412,-1.0960155 2.687006,-1.3717871 l -2.029397,2.029397 z m 2.071823,2.0718229 3.705239,-3.7052395 c 0.39598,0.042426 0.799031,0.1202081 1.18794,0.2262741 l -4.186072,4.1860724 z m 2.12132,2.12132 4.7659,-4.7658993 c 0.289914,0.1767766 0.572756,0.3606244 0.841457,0.5727564 l -4.90025,4.9002499 z m 7.021571,7.021571 -0.65761,-0.65761 2.029397,-2.029396 c -0.275772,0.954594 -0.735391,1.866762 -1.371787,2.687006 z m 1.633416,-5.777063 -3.705239,3.70524 -0.707107,-0.707107 4.186072,-4.186072 c 0.106066,0.388909 0.183848,0.79196 0.226274,1.187939 z m -1.06066,-3.18198 -4.7659,4.765899 -0.707106,-0.707106 4.90025,-4.90025 c 0.212132,0.2687 0.395979,0.551543 0.572756,0.841457 z"
             id="path7851"
             style="fill:#55d400;stroke:none;stroke-opacity:1" /></g></g></g></g></svg>